# xmcd
#
# Track frame offsets:
#	150
#	43247
#	60015
#	84238
#	106273
#	139201
#	166054
#	197842
#	224958
#
# Disc length: 4043 seconds
#
# Revision: 1
# Processed by: cddbd v1.5.2PL0 Copyright (c) Steve Scherf et al.
# Submitted via: audiograbber 1.81.03
#
DISCID=7b0fc909
DTITLE=Jude Bowerman Band - Just Press Play
DYEAR=2006
DGENRE=Funk
TTITLE0=Soulfire
TTITLE1=We Only Met Yesterday
TTITLE2=Everybody's Got A Light
TTITLE3=Can You Feel It
TTITLE4=Lovebug
TTITLE5=Can't Help Myself
TTITLE6=It's Your Thing/Funky Country
TTITLE7=Life Goes On
TTITLE8=Waiting In Vain
EXTD=
EXTT0=
EXTT1=
EXTT2=
EXTT3=
EXTT4=
EXTT5=
EXTT6=
EXTT7=
EXTT8=
PLAYORDER=
